<svg width="24" height="24" viewBox="0 0 24 24" fill="none" xmlns="http://www.w3.org/2000/svg">
<path d="M8.85 14.425C8.46667 14.425 8.14583 14.2958 7.8875 14.0375C7.62917 13.7792 7.5 13.4583 7.5 13.075C7.5 12.6917 7.62917 12.3708 7.8875 12.1125C8.14583 11.8542 8.46667 11.725 8.85 11.725C9.23333 11.725 9.55417 11.8542 9.8125 12.1125C10.0708 12.3708 10.2 12.6917 10.2 13.075C10.2 13.4583 10.0708 13.7792 9.8125 14.0375C9.55417 14.2958 9.23333 14.425 8.85 14.425ZM15.175 14.425C14.7917 14.425 14.4708 14.2958 14.2125 14.0375C13.9542 13.7792 13.825 13.4583 13.825 13.075C13.825 12.6917 13.9542 12.3708 14.2125 12.1125C14.4708 11.8542 14.7917 11.725 15.175 11.725C15.5583 11.725 15.8792 11.8542 16.1375 12.1125C16.3958 12.3708 16.525 12.6917 16.525 13.075C16.525 13.4583 16.3958 13.7792 16.1375 14.0375C15.8792 14.2958 15.5583 14.425 15.175 14.425ZM12 20.5C14.3667 20.5 16.375 19.675 18.025 18.025C19.675 16.375 20.5 14.3667 20.5 12C20.5 11.5667 20.4667 11.1417 20.4 10.725C20.3333 10.3083 20.25 9.925 20.15 9.575C19.8167 9.65833 19.4542 9.71667 19.0625 9.75C18.6708 9.78333 18.2667 9.8 17.85 9.8C16.2333 9.8 14.7042 9.46667 13.2625 8.8C11.8208 8.13333 10.5917 7.18333 9.575 5.95C9.00833 7.3 8.19583 8.47917 7.1375 9.4875C6.07917 10.4958 4.86667 11.275 3.5 11.825V12C3.5 14.3667 4.325 16.375 5.975 18.025C7.625 19.675 9.63333 20.5 12 20.5ZM12 22C10.6167 22 9.31667 21.7375 8.1 21.2125C6.88333 20.6875 5.825 19.975 4.925 19.075C4.025 18.175 3.3125 17.1167 2.7875 15.9C2.2625 14.6833 2 13.3833 2 12C2 10.6167 2.2625 9.31667 2.7875 8.1C3.3125 6.88333 4.025 5.825 4.925 4.925C5.825 4.025 6.88333 3.3125 8.1 2.7875C9.31667 2.2625 10.6167 2 12 2C13.3833 2 14.6833 2.2625 15.9 2.7875C17.1167 3.3125 18.175 4.025 19.075 4.925C19.975 5.825 20.6875 6.88333 21.2125 8.1C21.7375 9.31667 22 10.6167 22 12C22 13.3833 21.7375 14.6833 21.2125 15.9C20.6875 17.1167 19.975 18.175 19.075 19.075C18.175 19.975 17.1167 20.6875 15.9 21.2125C14.6833 21.7375 13.3833 22 12 22ZM9.7 3.825C11.1667 5.54167 12.5208 6.71667 13.7625 7.35C15.0042 7.98333 16.3667 8.3 17.85 8.3C18.25 8.3 18.5667 8.29167 18.8 8.275C19.0333 8.25833 19.2917 8.20833 19.575 8.125C18.825 6.775 17.8042 5.66667 16.5125 4.8C15.2208 3.93333 13.7167 3.5 12 3.5C11.55 3.5 11.125 3.53333 10.725 3.6C10.325 3.66667 9.98333 3.74167 9.7 3.825ZM3.725 10.05C4.525 9.75 5.4375 9.07083 6.4625 8.0125C7.4875 6.95417 8.21667 5.675 8.65 4.175C7.2 4.825 6.10417 5.65417 5.3625 6.6625C4.62083 7.67083 4.075 8.8 3.725 10.05Z" fill="#6671F6"/>
</svg>
