<svg width="53" height="53" viewBox="0 0 53 53" fill="none" xmlns="http://www.w3.org/2000/svg">
<g clip-path="url(#clip0_456_3749)">
<path d="M26.4995 52.999C41.1348 52.999 52.999 41.1348 52.999 26.4995C52.999 11.8642 41.1348 0 26.4995 0C11.8642 0 0 11.8642 0 26.4995C0 41.1348 11.8642 52.999 26.4995 52.999Z" fill="url(#paint0_linear_456_3749)"/>
<path d="M27.7888 22.3229C28.0944 20.6567 27.3489 19.1238 26.1236 18.899C24.8983 18.6743 23.6572 19.8428 23.3516 21.509C23.046 23.1752 23.7915 24.7081 25.0168 24.9328C26.2421 25.1576 27.4832 23.9891 27.7888 22.3229Z" fill="#6671F6"/>
<path d="M14.9144 19.5426C15.22 17.8764 14.4745 16.3435 13.2492 16.1187C12.0239 15.894 10.7828 17.0625 10.4772 18.7287C10.1716 20.3949 10.9171 21.9278 12.1424 22.1526C13.3677 22.3773 14.6088 21.2088 14.9144 19.5426Z" fill="#6671F6"/>
<path d="M20.6347 27.0796C20.4224 27.8413 19.919 28.489 19.2332 28.8828C18.5474 29.2766 17.7342 29.3848 16.9693 29.1842C16.1837 29.1014 15.4622 28.7127 14.961 28.1022C14.4597 27.4916 14.219 26.7083 14.2908 25.9216C14.3594 25.5748 14.5008 25.2465 14.7056 24.9584C14.9104 24.6702 15.174 24.4288 15.479 24.25V24.2399C16.2195 23.816 17.085 23.6645 17.9254 23.8116C18.7659 23.9587 19.5284 24.3952 20.0809 25.0455C20.3133 25.3252 20.4831 25.6515 20.5786 26.0024C20.6742 26.3533 20.6933 26.7207 20.6347 27.0796Z" fill="#6671F6"/>
<path d="M20.0824 25.0459C19.8021 25.4371 19.4078 25.7321 18.9535 25.8908C18.4991 26.0494 18.0069 26.064 17.544 25.9324C17.0718 25.8884 16.6233 25.7049 16.2556 25.4054C15.8879 25.1058 15.6176 24.7037 15.479 24.2502V24.2401C16.2197 23.816 17.0855 23.6644 17.9263 23.8116C18.767 23.9588 19.5298 24.3955 20.0824 25.0459Z" fill="white"/>
<path d="M29.3075 14.1502C29.0854 14.6382 28.9694 15.1677 28.9671 15.7037C28.9648 16.2398 29.0764 16.7703 29.2943 17.2601C29.7113 17.9945 30.3567 18.5727 31.1324 18.9066C31.9081 19.2406 32.7717 19.312 33.5917 19.1101" fill="#6671F6"/>
</g>
<defs>
<linearGradient id="paint0_linear_456_3749" x1="18" y1="20" x2="98.5" y2="90.5" gradientUnits="userSpaceOnUse">
<stop stop-color="#F2F3FF"/>
<stop offset="1" stop-color="#6671F6"/>
</linearGradient>
<clipPath id="clip0_456_3749">
<rect width="53" height="53" fill="white"/>
</clipPath>
</defs>
</svg>
